<svg data-v-0dd9719b="" version="1.0" xmlns="http://www.w3.org/2000/svg" xmlns:xlink="http://www.w3.org/1999/xlink" preserveAspectRatio="xMidYMid meet" color-interpolation-filters="sRGB" style="margin: auto;" viewBox="0 0 128.6 83.42">
  <g data-v-0dd9719b="" fill="#000000" class="endsvg">
    <!---->
    <!---->
    <!---->
    <!---->
    <g class="tp-name">
      <g>
        <rect data-gra="graph-name-bg" stroke-width="2" class="i-icon-bg" x="0" y="0" width="128.5931396484375" height="83.42340087890625" fill-opacity="0"></rect>
        <!---->
        <!---->
      </g>
      <g transform="translate(0,0)">
        <g data-gra="path-name-bg" mask="url(#8bfe02cc-90c8-4d6e-90f6-a982310d3bef)">
          <g>
            <rect data-gra="graph-name-bg" stroke-width="2" class="i-icon-bg" x="0" y="0" width="128.59101104736328" height="39.51300048828125" fill="#000000"></rect>
            <!---->
            <!---->
          </g>
          <g transform="translate(5,5)">
            <g data-gra="path-name" fill="#000000">
              <g transform="scale(1.0999999999999992)">
                <path d="M19.46-7.37L19.46-7.37Q19.46-5.57 18.87-4.11Q18.28-2.65 17.19-1.64Q16.11-0.63 14.56-0.07Q13.01 0.48 11.09 0.48L11.09 0.48Q8.04 0.48 5.64-0.50Q3.24-1.47 1.70-2.73L1.70-2.73L4.75-5.79Q5.97-4.68 7.48-4.09L7.48-4.09Q8.40-3.72 9.21-3.61Q10.03-3.50 10.54-3.50L10.54-3.50Q11.50-3.50 12.29-3.74Q13.08-3.98 13.67-4.39L13.67-4.39Q14.93-5.31 14.93-6.82L14.93-6.82Q14.93-7.74 14.26-8.48L14.26-8.48Q13.75-9.07 12.94-9.44L12.94-9.44Q12.27-9.80 11.54-10.03Q10.80-10.25 10.21-10.43L10.21-10.43Q10.03-10.50 9.88-10.52Q9.73-10.54 9.62-10.62L9.62-10.62Q9.55-10.62 9.40-10.69L9.40-10.69Q8.63-10.91 7.17-11.46Q5.71-12.02 4.28-12.97L4.28-12.97Q0.92-15.22 0.92-18.50L0.92-18.50Q0.92-20.68 1.68-22.17Q2.43-23.66 3.65-24.60Q4.87-25.54 6.36-25.95Q7.85-26.35 9.29-26.35L9.29-26.35Q11.94-26.35 13.75-25.73Q15.55-25.10 16.62-24.47L16.62-24.47Q17.18-24.14 17.56-23.83Q17.95-23.52 18.25-23.26L18.25-23.26L15.11-20.09Q14.12-21.08 13.08-21.60L13.08-21.60Q11.54-22.34 9.84-22.34L9.84-22.34Q9.10-22.34 8.37-22.15Q7.63-21.97 7.08-21.67L7.08-21.67Q5.46-20.68 5.46-19.06L5.46-19.06Q5.46-18.06 6.12-17.36L6.12-17.36Q6.60-16.81 7.45-16.37L7.45-16.37Q8.15-16.00 8.92-15.78Q9.69-15.55 10.36-15.37L10.36-15.37L10.80-15.26Q10.98-15.19 11.50-15.04Q12.02-14.89 12.72-14.60Q13.42-14.30 14.25-13.90Q15.08-13.49 15.89-12.94L15.89-12.94Q19.46-10.58 19.46-7.37ZM31.29-25.80L31.29-25.80Q33.21-25.80 34.91-25.06Q36.60-24.33 37.85-23.07Q39.11-21.82 39.84-20.14Q40.58-18.47 40.58-16.55L40.58-16.55Q40.58-14.63 39.84-12.94Q39.11-11.24 37.85-9.99Q36.60-8.74 34.91-8.00Q33.21-7.26 31.29-7.26L31.29-7.26L27.61-7.26L29.41-11.68L31.29-11.68Q33.28-11.68 34.72-13.12L34.72-13.12Q36.16-14.56 36.16-16.55L36.16-16.55Q36.16-18.58 34.72-19.94L34.72-19.94Q33.28-21.38 31.29-21.38L31.29-21.38L26.10-21.38L26.10 0L21.67 0L21.67-25.80L31.29-25.80ZM53.63-25.80L53.63-25.80L65.28 0L60.41 0L58.42-4.42L58.42-4.42L56.43-8.85L56.43-8.85L51.20-20.42L45.96-8.85L52.67-8.85L54.66-4.42L43.97-4.42L41.98 0L37.12 0L48.76-25.80L53.63-25.80ZM85.84-16.55L85.84-16.55Q85.84-15.15 85.46-13.88Q85.07-12.61 84.39-11.54Q83.71-10.47 82.73-9.60Q81.75-8.74 80.57-8.18L80.57-8.18L85.84 0L80.57 0L75.89-7.26L72.87-7.26L74.68-11.68L76.59-11.68Q78.58-11.68 80.02-13.12L80.02-13.12Q80.68-13.82 81.05-14.71Q81.42-15.59 81.42-16.55L81.42-16.55Q81.42-17.51 81.05-18.39Q80.68-19.28 80.02-19.94L80.02-19.94Q78.58-21.38 76.59-21.38L76.59-21.38L71.36-21.38L71.36-18.95L71.36-11.68L71.36-7.26L71.36 0L66.94 0L66.94-7.26L66.94-18.95L66.94-25.80L76.59-25.80Q78.51-25.80 80.19-25.06Q81.86-24.33 83.12-23.07Q84.37-21.82 85.11-20.14Q85.84-18.47 85.84-16.55ZM108.73 0.07L108.73 0.07L102.47 0.07L92.66-9.73L92.66 0L88.24 0L88.24-25.76L92.66-25.76L92.66-16.00L102.39-25.73L108.66-25.73L95.80-12.86L108.73 0.07Z" transform="translate(-0.9214743589743591, 26.35416666666667)"></path>
              </g>
            </g>
          </g>
        </g>
        <g data-gra="path-name-1-bg" transform="translate(0, 44.51300048828125) scale(1.3182110937527496)">
          <g>
            <rect data-gra="graph-name-bg" stroke-width="2" class="i-icon-bg" x="0" y="0" width="97.54800415039062" height="29.517581939697266" fill-opacity="0"></rect>
            <!---->
            <!---->
          </g>
          <g transform="translate(0,0)">
            <g data-gra="path-name-1" fill="#000000">
              <g transform="scale(1.0999999999999992)">
                <path d="M19.46-7.37L19.46-7.37Q19.46-5.57 18.87-4.11Q18.28-2.65 17.19-1.64Q16.11-0.63 14.56-0.07Q13.01 0.48 11.09 0.48L11.09 0.48Q8.04 0.48 5.64-0.50Q3.24-1.47 1.70-2.73L1.70-2.73L4.75-5.79Q5.97-4.68 7.48-4.09L7.48-4.09Q8.40-3.72 9.21-3.61Q10.03-3.50 10.54-3.50L10.54-3.50Q11.50-3.50 12.29-3.74Q13.08-3.98 13.67-4.39L13.67-4.39Q14.93-5.31 14.93-6.82L14.93-6.82Q14.93-7.74 14.26-8.48L14.26-8.48Q13.75-9.07 12.94-9.44L12.94-9.44Q12.27-9.80 11.54-10.03Q10.80-10.25 10.21-10.43L10.21-10.43Q10.03-10.50 9.88-10.52Q9.73-10.54 9.62-10.62L9.62-10.62Q9.55-10.62 9.40-10.69L9.40-10.69Q8.63-10.91 7.17-11.46Q5.71-12.02 4.28-12.97L4.28-12.97Q0.92-15.22 0.92-18.50L0.92-18.50Q0.92-20.68 1.68-22.17Q2.43-23.66 3.65-24.60Q4.87-25.54 6.36-25.95Q7.85-26.35 9.29-26.35L9.29-26.35Q11.94-26.35 13.75-25.73Q15.55-25.10 16.62-24.47L16.62-24.47Q17.18-24.14 17.56-23.83Q17.95-23.52 18.25-23.26L18.25-23.26L15.11-20.09Q14.12-21.08 13.08-21.60L13.08-21.60Q11.54-22.34 9.84-22.34L9.84-22.34Q9.10-22.34 8.37-22.15Q7.63-21.97 7.08-21.67L7.08-21.67Q5.46-20.68 5.46-19.06L5.46-19.06Q5.46-18.06 6.12-17.36L6.12-17.36Q6.60-16.81 7.45-16.37L7.45-16.37Q8.15-16.00 8.92-15.78Q9.69-15.55 10.36-15.37L10.36-15.37L10.80-15.26Q10.98-15.19 11.50-15.04Q12.02-14.89 12.72-14.60Q13.42-14.30 14.25-13.90Q15.08-13.49 15.89-12.94L15.89-12.94Q19.46-10.58 19.46-7.37ZM36.82-25.80L36.82-25.80L41.25-25.80L41.25 0L36.82 0L36.82-10.69L26.10-10.69L26.10 0L21.67 0L21.67-25.80L26.10-25.80L26.10-15.11L36.82-15.11L36.82-25.80ZM56.87-21.93L56.87-21.93Q55.07-21.93 53.45-21.25Q51.82-20.57 50.53-19.28L50.53-19.28Q49.24-17.99 48.56-16.37Q47.88-14.74 47.88-12.94L47.88-12.94Q47.88-11.13 48.56-9.49Q49.24-7.85 50.53-6.56L50.53-6.56Q51.82-5.27 53.45-4.61Q55.07-3.94 56.87-3.94L56.87-3.94Q58.68-3.94 60.32-4.61Q61.96-5.27 63.25-6.56L63.25-6.56Q64.54-7.85 65.20-9.49Q65.87-11.13 65.87-12.94L65.87-12.94Q65.87-14.74 65.20-16.37Q64.54-17.99 63.25-19.28L63.25-19.28Q61.96-20.57 60.32-21.25Q58.68-21.93 56.87-21.93ZM56.87-26.35L56.87-26.35Q59.64-26.35 62.09-25.30Q64.54-24.25 66.36-22.43Q68.19-20.60 69.24-18.15Q70.29-15.70 70.29-12.94L70.29-12.94Q70.29-10.17 69.24-7.72Q68.19-5.27 66.36-3.45Q64.54-1.62 62.09-0.57Q59.64 0.48 56.87 0.48L56.87 0.48Q54.11 0.48 51.66-0.57Q49.21-1.62 47.38-3.45Q45.56-5.27 44.51-7.72Q43.46-10.17 43.46-12.94L43.46-12.94Q43.46-15.70 44.51-18.15Q45.56-20.60 47.38-22.43Q49.21-24.25 51.66-25.30Q54.11-26.35 56.87-26.35ZM89.60-25.80L89.60-25.80L89.60-21.38L82.05-21.38L82.05 0L77.62 0L77.62-21.38L70.03-21.38L70.03-25.80L77.62-25.80L82.05-25.80L89.60-25.80Z" transform="translate(-0.921474358974359, 26.35416666666667)"></path>
              </g>
            </g>
          </g>
        </g>
      </g>
    </g>
    <!---->
    <!---->
  </g>
  <mask id="8bfe02cc-90c8-4d6e-90f6-a982310d3bef">
    <g fill="white">
      <rect data-gra="graph-name-bg" stroke-width="2" class="i-icon-bg" x="0" y="0" width="128.59101104736328" height="39.51300048828125"></rect>
    </g>
    <g transform="translate(5,5)" fill="black">
      <g data-gra="path-name">
        <g transform="scale(1.0999999999999992)">
          <path d="M19.46-7.37L19.46-7.37Q19.46-5.57 18.87-4.11Q18.28-2.65 17.19-1.64Q16.11-0.63 14.56-0.07Q13.01 0.48 11.09 0.48L11.09 0.48Q8.04 0.48 5.64-0.50Q3.24-1.47 1.70-2.73L1.70-2.73L4.75-5.79Q5.97-4.68 7.48-4.09L7.48-4.09Q8.40-3.72 9.21-3.61Q10.03-3.50 10.54-3.50L10.54-3.50Q11.50-3.50 12.29-3.74Q13.08-3.98 13.67-4.39L13.67-4.39Q14.93-5.31 14.93-6.82L14.93-6.82Q14.93-7.74 14.26-8.48L14.26-8.48Q13.75-9.07 12.94-9.44L12.94-9.44Q12.27-9.80 11.54-10.03Q10.80-10.25 10.21-10.43L10.21-10.43Q10.03-10.50 9.88-10.52Q9.73-10.54 9.62-10.62L9.62-10.62Q9.55-10.62 9.40-10.69L9.40-10.69Q8.63-10.91 7.17-11.46Q5.71-12.02 4.28-12.97L4.28-12.97Q0.92-15.22 0.92-18.50L0.92-18.50Q0.92-20.68 1.68-22.17Q2.43-23.66 3.65-24.60Q4.87-25.54 6.36-25.95Q7.85-26.35 9.29-26.35L9.29-26.35Q11.94-26.35 13.75-25.73Q15.55-25.10 16.62-24.47L16.62-24.47Q17.18-24.14 17.56-23.83Q17.95-23.52 18.25-23.26L18.25-23.26L15.11-20.09Q14.12-21.08 13.08-21.60L13.08-21.60Q11.54-22.34 9.84-22.34L9.84-22.34Q9.10-22.34 8.37-22.15Q7.63-21.97 7.08-21.67L7.08-21.67Q5.46-20.68 5.46-19.06L5.46-19.06Q5.46-18.06 6.12-17.36L6.12-17.36Q6.60-16.81 7.45-16.37L7.45-16.37Q8.15-16.00 8.92-15.78Q9.69-15.55 10.36-15.37L10.36-15.37L10.80-15.26Q10.98-15.19 11.50-15.04Q12.02-14.89 12.72-14.60Q13.42-14.30 14.25-13.90Q15.08-13.49 15.89-12.94L15.89-12.94Q19.46-10.58 19.46-7.37ZM31.29-25.80L31.29-25.80Q33.21-25.80 34.91-25.06Q36.60-24.33 37.85-23.07Q39.11-21.82 39.84-20.14Q40.58-18.47 40.58-16.55L40.58-16.55Q40.58-14.63 39.84-12.94Q39.11-11.24 37.85-9.99Q36.60-8.74 34.91-8.00Q33.21-7.26 31.29-7.26L31.29-7.26L27.61-7.26L29.41-11.68L31.29-11.68Q33.28-11.68 34.72-13.12L34.72-13.12Q36.16-14.56 36.16-16.55L36.16-16.55Q36.16-18.58 34.72-19.94L34.72-19.94Q33.28-21.38 31.29-21.38L31.29-21.38L26.10-21.38L26.10 0L21.67 0L21.67-25.80L31.29-25.80ZM53.63-25.80L53.63-25.80L65.28 0L60.41 0L58.42-4.42L58.42-4.42L56.43-8.85L56.43-8.85L51.20-20.42L45.96-8.85L52.67-8.85L54.66-4.42L43.97-4.42L41.98 0L37.12 0L48.76-25.80L53.63-25.80ZM85.84-16.55L85.84-16.55Q85.84-15.15 85.46-13.88Q85.07-12.61 84.39-11.54Q83.71-10.47 82.73-9.60Q81.75-8.74 80.57-8.18L80.57-8.18L85.84 0L80.57 0L75.89-7.26L72.87-7.26L74.68-11.68L76.59-11.68Q78.58-11.68 80.02-13.12L80.02-13.12Q80.68-13.82 81.05-14.71Q81.42-15.59 81.42-16.55L81.42-16.55Q81.42-17.51 81.05-18.39Q80.68-19.28 80.02-19.94L80.02-19.94Q78.58-21.38 76.59-21.38L76.59-21.38L71.36-21.38L71.36-18.95L71.36-11.68L71.36-7.26L71.36 0L66.94 0L66.94-7.26L66.94-18.95L66.94-25.80L76.59-25.80Q78.51-25.80 80.19-25.06Q81.86-24.33 83.12-23.07Q84.37-21.82 85.11-20.14Q85.84-18.47 85.84-16.55ZM108.73 0.07L108.73 0.07L102.47 0.07L92.66-9.73L92.66 0L88.24 0L88.24-25.76L92.66-25.76L92.66-16.00L102.39-25.73L108.66-25.73L95.80-12.86L108.73 0.07Z" transform="translate(-0.9214743589743591, 26.35416666666667)"></path>
        </g>
      </g>
    </g>
  </mask>
  <defs v-gra="od"></defs>
</svg>