<svg version="1.0" xmlns="http://www.w3.org/2000/svg" xmlns:xlink="http://www.w3.org/1999/xlink" width="100%" height="100%" viewBox="0 0 340.000000 250.000000" preserveAspectRatio="xMidYMid meet" color-interpolation-filters="sRGB" style="margin: auto;">
  <rect data-v-0dd9719b="" x="0" y="0" width="100%" height="100%" fill="#feffff" fill-opacity="1" class="background"></rect>
  <g data-v-0dd9719b="" fill="#2f2f2f" class="iconlinesvg-g iconlinesvg" transform="translate(73.88738590478897,105.32731819152832)">
    <g class="tp-name" transform="translate(0,0)">
      <g transform="translate(0, 2.1227178577660535)">
        <g data-gra="path-name" fill="#2f2f2f" transform="scale(1)">
          <path d="M17.00-15.22C16.04-18.43 12.95-20.82 9.04-20.82C4.61-20.82 1.40-17.93 1.40-14.75C1.40-11.17 4.23-9.83 6.68-8.89C9.59-7.79 11.98-7.38 11.98-5.74C11.98-4.75 11.17-3.94 9.42-3.94C7.26-3.94 5.80-5.48 5.28-7.03L0.58-5.77C1.92-1.95 4.96 0.41 9.21 0.41C13.97 0.41 17.17-2.25 17.17-5.98C17.17-9.48 14.00-11.20 10.96-12.31C8.49-13.21 6.44-13.70 6.44-15.05C6.44-15.86 7.29-16.59 8.75-16.59C10.21-16.59 11.78-15.75 12.28-13.94Z" transform="translate(-0.5831848371942329, 20.819698687834116)"></path>
        </g>
      </g>
      <g transform="translate(20, 2.1227178577660535)">
        <g data-gra="path-name" fill="#2f2f2f" transform="scale(1)">
          <path d="M2.27-20.41L2.27 0L7.17 0L7.17-6.42L10.06-6.42C15.08-6.42 18.11-9.04 18.11-13.41C18.11-17.79 15.08-20.41 10.06-20.41ZM7.17-10.99L7.17-15.83L9.97-15.83C11.87-15.83 13.01-14.93 13.01-13.41C13.01-11.90 11.87-10.99 9.97-10.99Z" transform="translate(-2.274420865057508, 20.819698687834116)"></path>
        </g>
      </g>
      <g transform="translate(39, 2.1227178577660535)">
        <g data-gra="path-name" fill="#2f2f2f" transform="scale(1)">
          <path d="M15.69 0L20.97 0L12.80-20.41L8.16-20.41L0 0L5.28 0L6.44-3.21L14.52-3.21ZM8.02-7.49L9.48-11.46C9.91-12.63 10.44-14.46 10.47-14.46L10.50-14.46C10.53-14.46 11.05-12.63 11.49-11.46L12.95-7.49Z" transform="translate(0, 20.819698687834116)"></path>
        </g>
      </g>
      <g transform="translate(63, 2.1227178577660535)">
        <g data-gra="path-name" fill="#2f2f2f" transform="scale(1)">
          <path d="M18.95 0L14.43-7.52C16.80-8.63 18.11-10.67 18.11-13.41C18.11-17.61 15.02-20.41 9.88-20.41L2.27-20.41L2.27 0L7.17 0L7.17-6.65L9.68-6.65L13.47 0ZM7.17-15.83L10.56-15.83C12.31-15.83 13.01-14.52 13.01-13.41C13.01-12.31 12.31-10.99 10.56-10.99L7.17-10.99Z" transform="translate(-2.2744208650575075, 20.819698687834116)"></path>
        </g>
      </g>
      <g transform="translate(83, 2.1227178577660535)">
        <g data-gra="path-name" fill="#2f2f2f" transform="scale(1)">
          <path d="M20.85 0L12.13-11.72L20.79-20.41L14.78-20.41L9.83-15.48C7.76-13.41 7.17-12.71 7.14-12.71L7.11-12.71C7.09-12.71 7.17-13.70 7.17-17.09L7.17-20.41L2.27-20.41L2.27 0L7.17 0L7.17-6.76L8.89-8.49L15.08 0Z" transform="translate(-2.2744208650575084, 20.819698687834116)"></path>
        </g>
      </g>
      <g transform="translate(105, 0)">
        <g>
          <g class="imagesvg">
            <g>
              <rect fill="#2f2f2f" fill-opacity="0" stroke-width="2" x="0" y="0" width="20.332329509425037" height="25.473363789402185" class="image-rect"></rect>
              <svg x="0" y="0" width="20.332329509425037" height="25.473363789402185" filtersec="colorsb1408521326" class="image-svg-svg primary" style="overflow: visible;">
                <svg xmlns="http://www.w3.org/2000/svg" viewBox="-0.013555868528783321 0.09902484714984894 45.816036224365234 57.40097427368164">
                  <title>S</title>
                  <g id="b4c9d7df-3895-43c8-bb93-4fd7e3086cbd" data-name="图层 2">
                    <g id="a4c9127e-2c5e-403f-ab0a-d1b0a70e03d8" data-name="Layer 1">
                      <path d="M29.4,17.8a8.2,8.2,0,0,1,2.1.3V.8L29.4.5Z" fill="#2f2f2f"></path>
                      <path d="M31.5,22.5a9.7,9.7,0,0,0-2.1-.6v35l2.1-.5Z" fill="#2f2f2f"></path>
                      <path d="M28.4,21.6l-.7-.3a2.6,2.6,0,0,1-1.3-.6V57.3l2-.3Z" fill="#2f2f2f"></path>
                      <path d="M26.4,18.3a4.3,4.3,0,0,1,2-.6V.4l-2-.2Z" fill="#2f2f2f"></path>
                      <path d="M35.5,19.4l2,.8V2.3l-2-.5Z" fill="#2f2f2f"></path>
                      <path d="M40.6,3.4l-2.1-.7v18l2.1.9Z" fill="#2f2f2f"></path>
                      <path d="M32.5,18.3l2,.7V1.5l-2-.5Z" fill="#2f2f2f"></path>
                      <path d="M40.6,27.6l-.4-.3-1.7-1.2V53.2a16.6,16.6,0,0,0,2.1-1.6Z" fill="#2f2f2f"></path>
                      <path d="M41.6,22.1l1,.6V4.4l-1-.5Z" fill="#2f2f2f"></path>
                      <path d="M34.5,23.7l-2-.8V56.1l2-.7Z" fill="#2f2f2f"></path>
                      <path d="M44.6,33.1V45.7a16.6,16.6,0,0,0,1.2-6.4A15.2,15.2,0,0,0,44.6,33.1Z" fill="#2f2f2f"></path>
                      <path d="M25.4.1H22.7C8.6,0,0,7.6,0,18.8A14.7,14.7,0,0,0,4.9,30.4,27,27,0,0,0,18.1,37c1,.2,1.7.7,1.7,1.8s-.5,1.8-2.8,1.8S9.1,38.8,1.6,34V52.9c5.5,2.9,13.9,4.6,20.9,4.6h2.9Z" fill="#2f2f2f"></path>
                      <path d="M37.5,25.4l-2-1.2V54.9l2-1Z" fill="#2f2f2f"></path>
                      <path d="M43.6,31.1a24.3,24.3,0,0,0-2-2.5v22a28.3,28.3,0,0,0,2-2.8Z" fill="#2f2f2f"></path>
                    </g>
                  </g>
                </svg>
              </svg>
              <!---->
            </g>
          </g>
        </g>
      </g>
      <g transform="translate(129, 2.1227178577660535)">
        <g data-gra="path-name" fill="#2f2f2f" transform="scale(1)">
          <path d="M14.81-20.41L14.81-12.51L7.17-12.51L7.17-20.41L2.27-20.41L2.27 0L7.17 0L7.17-7.93L14.81-7.93L14.81 0L19.71 0L19.71-20.41Z" transform="translate(-2.2744208650575084, 20.819698687834116)"></path>
        </g>
      </g>
      <g transform="translate(150, 2.1227178577660535)">
        <g data-gra="path-name" fill="#2f2f2f" transform="scale(1)">
          <path d="M1.02-10.21C1.02-4.05 5.74 0.41 11.61 0.41C17.47 0.41 22.22-4.05 22.22-10.21C22.22-16.36 17.47-20.82 11.61-20.82C5.74-20.82 1.02-16.36 1.02-10.21ZM6.12-10.21C6.12-13.65 8.31-15.98 11.61-15.98C14.93-15.98 17.12-13.65 17.12-10.21C17.12-6.79 14.93-4.43 11.61-4.43C8.31-4.43 6.12-6.79 6.12-10.21Z" transform="translate(-1.0205734650899076, 20.819698687834116)"></path>
        </g>
      </g>
      <g transform="translate(175, 2.1227178577660535)">
        <g data-gra="path-name" fill="#2f2f2f" transform="scale(1)">
          <path d="M0.29-20.41L0.29-15.83L6.42-15.83L6.42 0L11.31 0L11.31-15.83L17.52-15.83L17.52-20.41Z" transform="translate(-0.29159241859711643, 20.819698687834116)"></path>
        </g>
      </g>
    </g>
    <g data-gra="path-slogan" fill-rule="" class="tp-slogan" fill="#2f2f2f" transform="translate(80.615797996521,31.473363876342773)">
      <!---->
      <!---->
      <g transform="scale(1, 1)">
        <g transform="scale(1)">
          <path d="M1.08-7.87L1.08 0L2.00 0L2.00-4.33C2.00-4.68 1.99-5.07 1.96-5.50C1.92-5.92 1.90-6.31 1.87-6.66L1.92-6.66L2.54-4.91L4.07-0.79L4.63-0.79L6.14-4.91L6.78-6.66L6.83-6.66C6.80-6.31 6.77-5.92 6.74-5.50C6.71-5.07 6.70-4.68 6.70-4.33L6.70 0L7.64 0L7.64-7.87L6.47-7.87L4.96-3.65L4.40-2.04L4.36-2.04L3.78-3.65L2.26-7.87ZM9.80-7.87L9.80 0L14.46 0L14.46-0.85L10.80-0.85L10.80-3.71L13.79-3.71L13.79-4.56L10.80-4.56L10.80-7.03L14.34-7.03L14.34-7.87ZM16.13-7.87L16.13 0L18.14 0C18.74 0 19.26-0.09 19.72-0.27C20.17-0.45 20.56-0.71 20.87-1.05C21.18-1.39 21.42-1.81 21.58-2.30C21.74-2.79 21.82-3.35 21.82-3.97C21.82-5.23 21.50-6.19 20.87-6.86C20.24-7.54 19.31-7.87 18.10-7.87ZM18.02-0.82L17.12-0.82L17.12-7.06L18.02-7.06C18.94-7.06 19.63-6.79 20.09-6.26C20.55-5.74 20.78-4.97 20.78-3.97C20.78-2.97 20.55-2.20 20.09-1.64C19.63-1.09 18.94-0.82 18.02-0.82ZM23.51-7.87L23.51 0L24.50 0L24.50-7.87ZM30.01-3.20L27.65-3.20L28.02-4.40C28.16-4.84 28.30-5.28 28.43-5.72C28.56-6.15 28.68-6.60 28.80-7.06L28.85-7.06C28.98-6.60 29.10-6.15 29.23-5.72C29.36-5.28 29.50-4.84 29.64-4.40ZM30.26-2.40L31.01 0L32.08 0L29.41-7.87L28.28-7.87L25.62 0L26.64 0L27.40-2.40Z" transform="translate(-1.08, 7.872)"></path>
        </g>
      </g>
    </g>
  </g>
  <defs v-gra="od"></defs>
</svg>